<?xml version="1.0" encoding="utf-8"?>
<!-- Generator: Adobe Illustrator 22.1.0, SVG Export Plug-In . SVG Version: 6.00 Build 0)  -->
<svg version="1.1" id="Layer_1" xmlns="http://www.w3.org/2000/svg" xmlns:xlink="http://www.w3.org/1999/xlink" x="0px" y="0px"
	 viewBox="0 0 505 244" style="enable-background:new 0 0 505 244;" xml:space="preserve">
<style type="text/css">
	.st0{fill:#27236A;}
	.st1{fill:#2B2969;}
</style>
<g>
	<path class="st0" d="M20.2,102.9c1.2-2.2,3.5-3.5,6-3.6L56,99.1l12.6-22.3L53.4,51.1c-0.3-0.6-0.6-1.2-0.7-1.8l-33,19.1
		c-4.5,2.6-7.2,7.4-7.2,12.5v36L20.2,102.9z"/>
	<path class="st0" d="M185.3,166.7c-1.2,2.2-3.5,3.5-6,3.6l-29.5,0.3l-14.7,26c-1.3,2.3-3.7,3.6-6.1,3.6c-1.2,0-2.4-0.3-3.4-0.9
		c-3.4-1.9-4.6-6.2-2.6-9.5l14.6-25.9l-13.1-22.1l-14.5,0.1c0,0,0,0-0.1,0c-3.8,0-7-3.1-7-6.9c0-3.9,3-7,6.9-7.1l14.5-0.1l12.7-22.4
		l-15.1-25.6c-2-3.4-0.8-7.6,2.5-9.6c3.4-2,7.6-0.8,9.6,2.5l15.2,25.7l29.5-0.3c0,0,0,0,0.1,0c2.5,0,4.8,1.3,6,3.4l8.9,15.1V80.9
		c0-5.2-2.8-10-7.2-12.5l-76.1-44c-2.2-1.3-4.7-1.9-7.2-1.9c-2.6,0-5.1,0.7-7.2,1.9L64.3,42.5c0.4,0.4,0.8,0.9,1.1,1.4l15.1,25.5
		l14.8-0.1c0,0,0,0,0.1,0c3.8,0,7,3.1,7,6.9c0,3.9-3,7-6.9,7.1l-14.5,0.1L68.2,106l15,25.4c1.3,2.2,1.3,4.8,0.1,7l-16.6,29.3
		c-1.2,2.2-3.5,3.5-6,3.6L27,171.7c0,0,0,0-0.1,0c-2.5,0-4.8-1.3-6-3.4l-8.5-14.4v15c0,5.2,2.8,10,7.2,12.5l76.1,44
		c2.2,1.3,4.7,1.9,7.2,1.9c2.5,0,5.1-0.7,7.3-1.9l76.1-44c4.5-2.6,7.2-7.4,7.2-12.5v-16.7L185.3,166.7z M111.7,69.2c3.9,0,7,3.1,7,7
		s-3.1,7-7,7c-3.9,0-7-3.1-7-7S107.8,69.2,111.7,69.2z M93.5,141.7c-3.9,0-7-3.1-7-7c0-3.9,3.1-7,7-7s7,3.1,7,7
		C100.5,138.6,97.4,141.7,93.5,141.7z"/>
	<polygon class="st0" points="149.1,112.3 136.5,134.6 149.5,156.6 175.1,156.4 187.7,134.1 174.7,112 	"/>
</g>
<g>
	<path class="st1" d="M226.5,103.7c-2,0-3.8-0.3-5.6-1c-1.8-0.7-3.3-1.7-4.6-3c-1.3-1.3-2.4-2.8-3.1-4.6c-0.8-1.8-1.2-3.9-1.2-6.1
		c0-2.3,0.4-4.3,1.2-6.1c0.8-1.8,1.8-3.4,3.2-4.7c1.3-1.3,2.9-2.3,4.6-3c1.7-0.7,3.6-1,5.5-1c1.9,0,3.7,0.3,5.2,0.8
		c1.5,0.5,2.8,1.3,3.8,2.2c1.1,0.9,1.9,1.9,2.6,3c0.7,1.1,1.1,2.3,1.4,3.4l-5.2,1.6c-0.2-0.7-0.4-1.3-0.8-2
		c-0.4-0.7-0.9-1.3-1.5-1.8c-0.6-0.5-1.4-1-2.3-1.3c-0.9-0.3-2-0.5-3.2-0.5c-1.1,0-2.1,0.2-3.2,0.6c-1,0.4-2,1-2.8,1.7
		c-0.8,0.8-1.5,1.8-2,3c-0.5,1.2-0.8,2.6-0.8,4.2c0,1.5,0.2,2.9,0.7,4c0.5,1.2,1.1,2.1,2,2.9c0.8,0.8,1.7,1.4,2.8,1.8
		c1.1,0.4,2.2,0.6,3.3,0.6c1.2,0,2.3-0.2,3.2-0.5c0.9-0.4,1.7-0.8,2.3-1.4c0.6-0.6,1.2-1.2,1.6-1.9c0.4-0.7,0.7-1.4,0.9-2l5.2,1.6
		c-0.3,1.1-0.7,2.2-1.4,3.3c-0.7,1.1-1.5,2.2-2.6,3.1c-1.1,0.9-2.4,1.7-3.9,2.3C230.2,103.4,228.5,103.7,226.5,103.7z"/>
	<path class="st1" d="M251.9,82.8c1.5,0,2.8,0.3,4.1,0.8c1.3,0.5,2.4,1.2,3.3,2.2c0.9,0.9,1.6,2,2.2,3.3c0.5,1.3,0.8,2.7,0.8,4.2
		s-0.3,2.9-0.8,4.2c-0.5,1.3-1.2,2.4-2.2,3.3c-0.9,0.9-2,1.7-3.3,2.2c-1.3,0.5-2.6,0.8-4.1,0.8s-2.8-0.3-4.1-0.8s-2.4-1.2-3.3-2.2
		c-0.9-0.9-1.6-2-2.2-3.3c-0.5-1.3-0.8-2.7-0.8-4.2s0.3-2.9,0.8-4.2c0.5-1.3,1.2-2.4,2.2-3.3s2-1.6,3.3-2.2S250.5,82.8,251.9,82.8z
		 M251.9,98.9c0.6,0,1.3-0.1,1.9-0.4c0.6-0.2,1.1-0.6,1.6-1.1c0.5-0.5,0.8-1,1.1-1.7c0.3-0.7,0.4-1.5,0.4-2.4c0-0.9-0.1-1.7-0.4-2.4
		c-0.3-0.7-0.6-1.3-1.1-1.7c-0.5-0.5-1-0.8-1.6-1.1c-0.6-0.2-1.2-0.4-1.9-0.4c-0.6,0-1.3,0.1-1.9,0.4c-0.6,0.2-1.1,0.6-1.6,1.1
		c-0.5,0.5-0.8,1-1.1,1.7c-0.3,0.7-0.4,1.5-0.4,2.4c0,0.9,0.1,1.7,0.4,2.4c0.3,0.7,0.6,1.3,1.1,1.7c0.5,0.5,1,0.8,1.6,1.1
		C250.7,98.8,251.3,98.9,251.9,98.9z"/>
	<path class="st1" d="M266.5,103.1V83.4h5.1v2.4c0.3-0.5,0.6-0.9,1-1.3c0.4-0.4,0.9-0.7,1.4-0.9c0.5-0.2,1.1-0.4,1.6-0.6
		c0.6-0.1,1.1-0.2,1.7-0.2c1.4,0,2.5,0.3,3.6,0.8c1,0.6,1.8,1.4,2.3,2.4c0.8-1.2,1.7-2,2.7-2.5c1-0.5,2.2-0.7,3.5-0.7
		c0.9,0,1.8,0.1,2.6,0.4c0.9,0.3,1.6,0.7,2.3,1.3c0.7,0.6,1.2,1.4,1.6,2.3c0.4,0.9,0.6,2.1,0.6,3.4v12.8h-5.2V91.4
		c0-1.1-0.3-2-0.8-2.7c-0.5-0.7-1.4-1.1-2.7-1.1c-1.1,0-2,0.4-2.7,1.1c-0.6,0.8-1,1.7-1,2.7v11.5h-5.3V91.4c0-1.1-0.3-2-0.8-2.7
		c-0.6-0.7-1.4-1.1-2.6-1.1c-1.2,0-2.1,0.4-2.7,1.1s-1,1.7-1,2.8v11.5H266.5z"/>
	<path class="st1" d="M301.9,110.7V83.4h5.2v2.4c0.5-0.8,1.2-1.4,2.2-2c1-0.6,2.3-0.8,3.8-0.8c1.4,0,2.7,0.3,3.8,0.8
		s2.1,1.2,2.9,2.2c0.8,0.9,1.4,2,1.8,3.2c0.4,1.2,0.6,2.6,0.6,4.1c0,1.5-0.2,2.9-0.7,4.1c-0.4,1.3-1.1,2.4-1.9,3.3s-1.8,1.6-2.9,2.2
		s-2.4,0.8-3.8,0.8c-1.4,0-2.5-0.2-3.5-0.7c-1-0.5-1.7-1-2.2-1.7v9.5H301.9z M316.9,93.3c0-1.8-0.5-3.1-1.4-4.1
		c-0.9-1-2.1-1.4-3.5-1.4c-0.7,0-1.3,0.1-1.9,0.4c-0.6,0.3-1.1,0.6-1.6,1.1c-0.5,0.5-0.8,1-1.1,1.7c-0.3,0.7-0.4,1.5-0.4,2.3
		c0,0.9,0.1,1.7,0.4,2.3c0.3,0.7,0.6,1.3,1.1,1.7c0.5,0.5,1,0.8,1.6,1.1c0.6,0.3,1.2,0.4,1.9,0.4c1.4,0,2.5-0.5,3.5-1.5
		C316.5,96.4,316.9,95,316.9,93.3z"/>
	<path class="st1" d="M339.2,103.1c-0.1-0.2-0.1-0.5-0.1-0.9s0-0.8,0-1.2c-0.5,0.9-1.3,1.6-2.3,2s-2.1,0.6-3.1,0.6
		c-1.2,0-2.3-0.2-3.2-0.6c-0.9-0.4-1.7-1-2.3-1.7c-0.6-0.7-1.1-1.5-1.5-2.5c-0.3-0.9-0.5-2-0.5-3V83.4h5.3v11.4
		c0,1.1,0.3,2.1,0.9,2.8c0.6,0.8,1.5,1.1,2.7,1.1c1.2,0,2.1-0.4,2.8-1.1c0.6-0.7,1-1.7,1-2.8V83.4h5.3v16.1c0,0.8,0,1.5,0.1,2.1
		c0,0.6,0.1,1.1,0.1,1.5H339.2z"/>
	<path class="st1" d="M356.3,83.4h4v4.7h-4v8.2c0,0.9,0.2,1.4,0.6,1.8c0.4,0.3,1,0.5,1.7,0.5c0.3,0,0.6,0,1,0c0.3,0,0.5-0.1,0.7-0.1
		v4.4c-0.2,0.1-0.6,0.2-1.1,0.3c-0.5,0.1-1.1,0.2-1.9,0.2c-1.9,0-3.4-0.5-4.6-1.6c-1.1-1.1-1.7-2.6-1.7-4.5v-9.2h-3.6v-4.7h1
		c1,0,1.8-0.3,2.3-0.9c0.5-0.6,0.7-1.3,0.7-2.2v-2.8h4.8V83.4z"/>
	<path class="st1" d="M363.7,97.8c0-0.9,0.2-1.7,0.5-2.3c0.3-0.7,0.7-1.3,1.3-1.8c0.5-0.5,1.2-0.9,1.9-1.2c0.7-0.3,1.5-0.5,2.3-0.6
		l4.8-0.7c0.6-0.1,0.9-0.2,1.2-0.5c0.2-0.3,0.3-0.6,0.3-0.9c0-0.7-0.3-1.3-0.8-1.8c-0.5-0.5-1.4-0.8-2.5-0.8c-1.2,0-2.1,0.3-2.7,1
		c-0.6,0.6-1,1.4-1.1,2.2l-4.7-1c0.1-0.8,0.3-1.5,0.7-2.3c0.4-0.8,0.9-1.5,1.6-2.1c0.7-0.6,1.5-1.1,2.6-1.5c1-0.4,2.2-0.6,3.5-0.6
		c1.5,0,2.9,0.2,4,0.6c1.1,0.4,2,1,2.7,1.6c0.7,0.7,1.2,1.5,1.5,2.4c0.3,0.9,0.5,1.9,0.5,2.8v9.7c0,0.5,0,1.1,0.1,1.7
		c0.1,0.6,0.1,1.1,0.2,1.4h-4.9c-0.1-0.3-0.1-0.6-0.1-1.1c0-0.5-0.1-0.9-0.1-1.3c-0.5,0.8-1.2,1.5-2.2,2c-0.9,0.6-2.2,0.9-3.6,0.9
		c-1,0-2-0.2-2.8-0.5s-1.6-0.8-2.1-1.3c-0.6-0.5-1-1.2-1.3-1.9C363.8,99.3,363.7,98.5,363.7,97.8z M371.6,99.7
		c0.6,0,1.1-0.1,1.6-0.2c0.5-0.1,1-0.4,1.4-0.8c0.4-0.4,0.7-0.8,1-1.4c0.2-0.6,0.4-1.3,0.4-2.2v-0.9l-4.4,0.7
		c-0.7,0.1-1.3,0.4-1.7,0.7c-0.5,0.4-0.7,1-0.7,1.7c0,0.6,0.2,1.1,0.6,1.6C370.1,99.5,370.7,99.7,371.6,99.7z"/>
	<path class="st1" d="M392.9,83.4h4v4.7h-4v8.2c0,0.9,0.2,1.4,0.6,1.8c0.4,0.3,1,0.5,1.7,0.5c0.3,0,0.6,0,1,0c0.3,0,0.5-0.1,0.7-0.1
		v4.4c-0.2,0.1-0.6,0.2-1.1,0.3c-0.5,0.1-1.1,0.2-1.9,0.2c-1.9,0-3.4-0.5-4.6-1.6c-1.1-1.1-1.7-2.6-1.7-4.5v-9.2h-3.6v-4.7h1
		c1,0,1.8-0.3,2.3-0.9c0.5-0.6,0.7-1.3,0.7-2.2v-2.8h4.8V83.4z"/>
	<path class="st1" d="M400.7,77c0-0.9,0.3-1.7,1-2.4c0.6-0.6,1.4-1,2.3-1c0.9,0,1.7,0.3,2.3,1c0.6,0.6,0.9,1.4,0.9,2.4
		c0,0.9-0.3,1.6-0.9,2.3c-0.6,0.6-1.4,1-2.3,1c-0.9,0-1.7-0.3-2.3-1C401.1,78.6,400.7,77.9,400.7,77z M401.4,103.1V83.4h5.3v19.7
		H401.4z"/>
	<path class="st1" d="M421.2,82.8c1.5,0,2.8,0.3,4.1,0.8c1.3,0.5,2.4,1.2,3.3,2.2c0.9,0.9,1.6,2,2.2,3.3c0.5,1.3,0.8,2.7,0.8,4.2
		s-0.3,2.9-0.8,4.2c-0.5,1.3-1.2,2.4-2.2,3.3c-0.9,0.9-2,1.7-3.3,2.2c-1.3,0.5-2.6,0.8-4.1,0.8s-2.8-0.3-4.1-0.8s-2.4-1.2-3.3-2.2
		c-0.9-0.9-1.6-2-2.2-3.3c-0.5-1.3-0.8-2.7-0.8-4.2s0.3-2.9,0.8-4.2c0.5-1.3,1.2-2.4,2.2-3.3s2-1.6,3.3-2.2S419.7,82.8,421.2,82.8z
		 M421.2,98.9c0.6,0,1.3-0.1,1.9-0.4c0.6-0.2,1.1-0.6,1.6-1.1c0.5-0.5,0.8-1,1.1-1.7c0.3-0.7,0.4-1.5,0.4-2.4c0-0.9-0.1-1.7-0.4-2.4
		c-0.3-0.7-0.6-1.3-1.1-1.7c-0.5-0.5-1-0.8-1.6-1.1c-0.6-0.2-1.2-0.4-1.9-0.4c-0.6,0-1.3,0.1-1.9,0.4c-0.6,0.2-1.1,0.6-1.6,1.1
		c-0.5,0.5-0.8,1-1.1,1.7c-0.3,0.7-0.4,1.5-0.4,2.4c0,0.9,0.1,1.7,0.4,2.4c0.3,0.7,0.6,1.3,1.1,1.7c0.5,0.5,1,0.8,1.6,1.1
		C419.9,98.8,420.6,98.9,421.2,98.9z"/>
	<path class="st1" d="M441.1,103.1h-5.3V83.4h5.2v2.4c0.6-1,1.4-1.8,2.5-2.2c1.1-0.5,2.1-0.7,3.2-0.7c1.2,0,2.3,0.2,3.2,0.6
		c0.9,0.4,1.6,1,2.2,1.7c0.6,0.7,1,1.5,1.3,2.5s0.4,2,0.4,3v12.4h-5.3V91.6c0-1.1-0.3-2.1-0.9-2.8c-0.6-0.7-1.5-1.1-2.8-1.1
		c-1.2,0-2.1,0.4-2.7,1.2c-0.6,0.8-1,1.8-1,2.9V103.1z"/>
	<path class="st1" d="M457.9,97.8c0-0.9,0.2-1.7,0.5-2.3c0.3-0.7,0.7-1.3,1.3-1.8c0.5-0.5,1.2-0.9,1.9-1.2c0.7-0.3,1.5-0.5,2.3-0.6
		l4.8-0.7c0.6-0.1,0.9-0.2,1.2-0.5c0.2-0.3,0.3-0.6,0.3-0.9c0-0.7-0.3-1.3-0.8-1.8c-0.5-0.5-1.4-0.8-2.5-0.8c-1.2,0-2.1,0.3-2.7,1
		c-0.6,0.6-1,1.4-1.1,2.2l-4.7-1c0.1-0.8,0.3-1.5,0.7-2.3c0.4-0.8,0.9-1.5,1.6-2.1c0.7-0.6,1.5-1.1,2.6-1.5c1-0.4,2.2-0.6,3.5-0.6
		c1.5,0,2.9,0.2,4,0.6c1.1,0.4,2,1,2.7,1.6c0.7,0.7,1.2,1.5,1.5,2.4c0.3,0.9,0.5,1.9,0.5,2.8v9.7c0,0.5,0,1.1,0.1,1.7
		c0.1,0.6,0.1,1.1,0.2,1.4h-4.9c-0.1-0.3-0.1-0.6-0.1-1.1c0-0.5-0.1-0.9-0.1-1.3c-0.5,0.8-1.2,1.5-2.2,2c-0.9,0.6-2.2,0.9-3.6,0.9
		c-1,0-2-0.2-2.8-0.5s-1.6-0.8-2.1-1.3c-0.6-0.5-1-1.2-1.3-1.9C458,99.3,457.9,98.5,457.9,97.8z M465.8,99.7c0.6,0,1.1-0.1,1.6-0.2
		c0.5-0.1,1-0.4,1.4-0.8c0.4-0.4,0.7-0.8,1-1.4c0.2-0.6,0.4-1.3,0.4-2.2v-0.9l-4.4,0.7c-0.7,0.1-1.3,0.4-1.7,0.7
		c-0.5,0.4-0.7,1-0.7,1.7c0,0.6,0.2,1.1,0.6,1.6C464.3,99.5,464.9,99.7,465.8,99.7z"/>
	<path class="st1" d="M480.7,103.1v-29h5.3v29H480.7z"/>
	<path class="st1" d="M223.8,108.8c1.4,0,2.6,0.2,3.7,0.6c1.1,0.4,2,0.9,2.7,1.6c0.7,0.7,1.3,1.5,1.7,2.4c0.4,0.9,0.6,1.9,0.6,3
		c0,1.5-0.4,2.7-1.2,3.8c-0.8,1.1-1.8,1.8-3,2.2c0.7,0.2,1.3,0.4,1.9,0.8c0.6,0.4,1.1,0.9,1.6,1.5c0.5,0.6,0.8,1.2,1.1,2
		c0.3,0.7,0.4,1.6,0.4,2.4c0,1.1-0.2,2.2-0.6,3.2c-0.4,1-1,1.8-1.8,2.5c-0.8,0.7-1.7,1.2-2.8,1.6c-1.1,0.4-2.3,0.6-3.6,0.6h-11
		v-28.4H223.8z M223,120.5c1.3,0,2.3-0.3,3-1c0.7-0.6,1.1-1.5,1.1-2.6c0-1.1-0.3-2-1-2.6c-0.7-0.6-1.7-0.9-3.1-0.9h-3.9v7.1H223z
		 M223.5,132.5c1.4,0,2.4-0.3,3.2-1c0.7-0.7,1.1-1.6,1.1-2.7c0-1.1-0.4-2-1.1-2.7c-0.7-0.7-1.8-1.1-3.1-1.1h-4.6v7.5H223.5z"/>
	<path class="st1" d="M237,111c0-0.9,0.3-1.7,1-2.4s1.4-1,2.3-1c0.9,0,1.7,0.3,2.3,1c0.6,0.6,0.9,1.4,0.9,2.4c0,0.9-0.3,1.6-0.9,2.3
		c-0.6,0.6-1.4,1-2.3,1c-0.9,0-1.7-0.3-2.3-1C237.3,112.6,237,111.9,237,111z M237.6,137.1v-19.7h5.3v19.7H237.6z"/>
	<path class="st1" d="M257.5,116.8c1.5,0,2.8,0.3,4.1,0.8c1.3,0.5,2.4,1.2,3.3,2.2c0.9,0.9,1.6,2,2.2,3.3c0.5,1.3,0.8,2.7,0.8,4.2
		c0,1.5-0.3,2.9-0.8,4.2c-0.5,1.3-1.2,2.4-2.2,3.3c-0.9,0.9-2,1.7-3.3,2.2c-1.3,0.5-2.6,0.8-4.1,0.8s-2.8-0.3-4.1-0.8
		c-1.3-0.5-2.4-1.2-3.3-2.2s-1.6-2-2.2-3.3c-0.5-1.3-0.8-2.7-0.8-4.2c0-1.5,0.3-2.9,0.8-4.2c0.5-1.3,1.2-2.4,2.2-3.3s2-1.6,3.3-2.2
		S256,116.8,257.5,116.8z M257.5,132.9c0.6,0,1.3-0.1,1.9-0.4s1.1-0.6,1.6-1.1c0.5-0.5,0.8-1,1.1-1.7c0.3-0.7,0.4-1.5,0.4-2.4
		c0-0.9-0.1-1.7-0.4-2.4c-0.3-0.7-0.6-1.3-1.1-1.7c-0.5-0.5-1-0.8-1.6-1.1c-0.6-0.2-1.2-0.4-1.9-0.4c-0.6,0-1.3,0.1-1.9,0.4
		c-0.6,0.2-1.1,0.6-1.6,1.1c-0.5,0.5-0.8,1-1.1,1.7c-0.3,0.7-0.4,1.5-0.4,2.4c0,0.9,0.1,1.7,0.4,2.4c0.3,0.7,0.6,1.3,1.1,1.7
		c0.5,0.5,1,0.8,1.6,1.1S256.8,132.9,257.5,132.9z"/>
	<path class="st1" d="M272,137.1v-29h5.3v29H272z"/>
	<path class="st1" d="M291.8,116.8c1.5,0,2.8,0.3,4.1,0.8c1.3,0.5,2.4,1.2,3.3,2.2c0.9,0.9,1.6,2,2.2,3.3c0.5,1.3,0.8,2.7,0.8,4.2
		c0,1.5-0.3,2.9-0.8,4.2c-0.5,1.3-1.2,2.4-2.2,3.3c-0.9,0.9-2,1.7-3.3,2.2c-1.3,0.5-2.6,0.8-4.1,0.8s-2.8-0.3-4.1-0.8
		c-1.3-0.5-2.4-1.2-3.3-2.2s-1.6-2-2.2-3.3c-0.5-1.3-0.8-2.7-0.8-4.2c0-1.5,0.3-2.9,0.8-4.2c0.5-1.3,1.2-2.4,2.2-3.3s2-1.6,3.3-2.2
		S290.3,116.8,291.8,116.8z M291.8,132.9c0.6,0,1.3-0.1,1.9-0.4s1.1-0.6,1.6-1.1c0.5-0.5,0.8-1,1.1-1.7c0.3-0.7,0.4-1.5,0.4-2.4
		c0-0.9-0.1-1.7-0.4-2.4c-0.3-0.7-0.6-1.3-1.1-1.7c-0.5-0.5-1-0.8-1.6-1.1c-0.6-0.2-1.2-0.4-1.9-0.4c-0.6,0-1.3,0.1-1.9,0.4
		c-0.6,0.2-1.1,0.6-1.6,1.1c-0.5,0.5-0.8,1-1.1,1.7c-0.3,0.7-0.4,1.5-0.4,2.4c0,0.9,0.1,1.7,0.4,2.4c0.3,0.7,0.6,1.3,1.1,1.7
		c0.5,0.5,1,0.8,1.6,1.1S291.2,132.9,291.8,132.9z"/>
	<path class="st1" d="M309.7,136.9c0.2,1.1,0.7,2,1.5,2.7c0.8,0.7,1.8,1,3.1,1c1.7,0,3-0.4,3.9-1.3c0.9-0.9,1.4-2.3,1.4-4.2v-1.4
		c-0.4,0.6-1.1,1.2-2,1.7c-0.9,0.5-2.1,0.8-3.5,0.8c-1.3,0-2.5-0.2-3.6-0.7c-1.1-0.5-2.1-1.1-2.9-2s-1.5-1.9-1.9-3
		c-0.5-1.2-0.7-2.4-0.7-3.8c0-1.3,0.2-2.5,0.7-3.7c0.5-1.2,1.1-2.2,1.9-3.1c0.8-0.9,1.8-1.6,2.9-2.1c1.1-0.5,2.4-0.8,3.7-0.8
		c1.6,0,2.8,0.3,3.7,0.8c0.9,0.6,1.5,1.2,1.9,1.8v-2.3h5.1V135c0,1.4-0.2,2.7-0.6,3.9c-0.4,1.2-1,2.3-1.8,3.3
		c-0.8,0.9-1.9,1.7-3.2,2.3c-1.3,0.6-2.9,0.9-4.7,0.9c-1.4,0-2.6-0.2-3.7-0.6c-1.1-0.4-2.1-0.9-2.9-1.6c-0.8-0.7-1.5-1.4-2-2.3
		c-0.5-0.9-0.8-1.8-1-2.7L309.7,136.9z M315,131.7c1.4,0,2.5-0.5,3.3-1.4c0.9-0.9,1.3-2.1,1.3-3.6s-0.5-2.7-1.4-3.6
		c-0.9-0.9-2-1.3-3.3-1.3c-0.7,0-1.3,0.1-1.9,0.3c-0.6,0.2-1.1,0.6-1.5,1c-0.4,0.4-0.8,1-1,1.6c-0.2,0.6-0.4,1.3-0.4,2
		c0,1.5,0.4,2.8,1.3,3.7C312.5,131.2,313.6,131.7,315,131.7z"/>
	<path class="st1" d="M331.2,144.9l4.6-10.2l-8.4-17.2h6l5.2,11.5l4.8-11.5h5.7l-12.4,27.4H331.2z"/>
	<path class="st1" d="M226.5,171.7c-2,0-3.8-0.3-5.6-1c-1.8-0.7-3.3-1.7-4.6-3c-1.3-1.3-2.4-2.8-3.1-4.6c-0.8-1.8-1.2-3.9-1.2-6.1
		c0-2.3,0.4-4.3,1.2-6.1c0.8-1.8,1.8-3.4,3.2-4.7c1.3-1.3,2.9-2.3,4.6-3c1.7-0.7,3.6-1,5.5-1c1.9,0,3.7,0.3,5.2,0.8
		c1.5,0.5,2.8,1.3,3.8,2.2c1.1,0.9,1.9,1.9,2.6,3c0.7,1.1,1.1,2.3,1.4,3.4l-5.2,1.6c-0.2-0.7-0.4-1.3-0.8-2
		c-0.4-0.7-0.9-1.3-1.5-1.8c-0.6-0.5-1.4-1-2.3-1.3c-0.9-0.3-2-0.5-3.2-0.5c-1.1,0-2.1,0.2-3.2,0.6c-1,0.4-2,1-2.8,1.7
		c-0.8,0.8-1.5,1.8-2,3c-0.5,1.2-0.8,2.6-0.8,4.2c0,1.5,0.2,2.9,0.7,4c0.5,1.2,1.1,2.1,2,2.9c0.8,0.8,1.7,1.4,2.8,1.8
		c1.1,0.4,2.2,0.6,3.3,0.6c1.2,0,2.3-0.2,3.2-0.5c0.9-0.4,1.7-0.8,2.3-1.4c0.6-0.6,1.2-1.2,1.6-1.9c0.4-0.7,0.7-1.4,0.9-2l5.2,1.6
		c-0.3,1.1-0.7,2.2-1.4,3.3c-0.7,1.1-1.5,2.2-2.6,3.1c-1.1,0.9-2.4,1.7-3.9,2.3C230.2,171.4,228.5,171.7,226.5,171.7z"/>
	<path class="st1" d="M251.9,150.8c1.5,0,2.8,0.3,4.1,0.8c1.3,0.5,2.4,1.2,3.3,2.2c0.9,0.9,1.6,2,2.2,3.3c0.5,1.3,0.8,2.7,0.8,4.2
		s-0.3,2.9-0.8,4.2c-0.5,1.3-1.2,2.4-2.2,3.3c-0.9,0.9-2,1.7-3.3,2.2c-1.3,0.5-2.6,0.8-4.1,0.8s-2.8-0.3-4.1-0.8
		c-1.3-0.5-2.4-1.2-3.3-2.2c-0.9-0.9-1.6-2-2.2-3.3c-0.5-1.3-0.8-2.7-0.8-4.2s0.3-2.9,0.8-4.2c0.5-1.3,1.2-2.4,2.2-3.3
		s2-1.6,3.3-2.2S250.5,150.8,251.9,150.8z M251.9,166.9c0.6,0,1.3-0.1,1.9-0.4c0.6-0.2,1.1-0.6,1.6-1.1c0.5-0.5,0.8-1,1.1-1.7
		c0.3-0.7,0.4-1.5,0.4-2.4s-0.1-1.7-0.4-2.4c-0.3-0.7-0.6-1.3-1.1-1.7c-0.5-0.5-1-0.8-1.6-1.1s-1.2-0.4-1.9-0.4
		c-0.6,0-1.3,0.1-1.9,0.4s-1.1,0.6-1.6,1.1c-0.5,0.5-0.8,1-1.1,1.7c-0.3,0.7-0.4,1.5-0.4,2.4s0.1,1.7,0.4,2.4
		c0.3,0.7,0.6,1.3,1.1,1.7c0.5,0.5,1,0.8,1.6,1.1C250.7,166.8,251.3,166.9,251.9,166.9z"/>
	<path class="st1" d="M278.5,156.7c-0.5-0.1-1.1-0.2-1.6-0.2c-0.7,0-1.3,0.1-2,0.3c-0.6,0.2-1.1,0.5-1.6,0.9c-0.5,0.4-0.8,1-1.1,1.7
		c-0.3,0.7-0.4,1.6-0.4,2.7v9h-5.3v-19.7h5.2v2.9c0.3-0.6,0.7-1.2,1.1-1.6c0.5-0.4,1-0.7,1.5-0.9c0.5-0.2,1-0.4,1.6-0.4
		c0.5-0.1,1-0.1,1.4-0.1c0.2,0,0.4,0,0.6,0c0.2,0,0.4,0,0.6,0.1V156.7z"/>
	<path class="st1" d="M299.7,165.5c-0.2,0.9-0.6,1.7-1.1,2.4c-0.5,0.8-1.2,1.4-1.9,2c-0.7,0.6-1.6,1-2.6,1.3c-1,0.3-2.1,0.5-3.3,0.5
		c-1.4,0-2.7-0.2-3.9-0.7c-1.2-0.5-2.3-1.2-3.2-2.1c-0.9-0.9-1.7-2-2.2-3.3c-0.5-1.3-0.8-2.8-0.8-4.4c0-1.6,0.3-3,0.8-4.3
		c0.5-1.3,1.2-2.4,2.1-3.3s1.9-1.6,3.1-2.1c1.2-0.5,2.4-0.7,3.6-0.7c3.1,0,5.5,0.9,7.2,2.7c1.7,1.8,2.6,4.3,2.6,7.5
		c0,0.4,0,0.7,0,1.1c0,0.3,0,0.5,0,0.6h-14.1c0,0.6,0.2,1.2,0.5,1.8c0.3,0.5,0.6,1,1.1,1.4c0.4,0.4,1,0.7,1.5,0.9s1.2,0.3,1.9,0.3
		c1.3,0,2.2-0.3,2.9-0.8c0.7-0.6,1.2-1.3,1.5-2.2L299.7,165.5z M294.7,159c0-0.5-0.1-1-0.3-1.4s-0.4-0.9-0.8-1.2
		c-0.4-0.4-0.8-0.7-1.4-0.9c-0.5-0.2-1.2-0.3-1.9-0.3c-0.7,0-1.3,0.1-1.8,0.4c-0.5,0.2-1,0.5-1.4,0.9c-0.4,0.4-0.7,0.8-0.9,1.2
		c-0.2,0.5-0.3,0.9-0.3,1.4H294.7z"/>
</g>
</svg>
