<svg version="1.1" id="cbc" class="cbc-logo" xmlns="http://www.w3.org/2000/svg" xmlns:xlink="http://www.w3.org/1999/xlink" x="0px" y="0px"
	 viewBox="0 0 205 218" style="enable-background:new 0 0 205 218;" xml:space="preserve">
<g>
	<path class="st0" d="M20.2,87.9c1.2-2.2,3.5-3.5,6-3.6L56,84.1l12.6-22.3L53.4,36.1c-0.3-0.6-0.6-1.2-0.7-1.8l-33,19.1
		c-4.5,2.6-7.2,7.4-7.2,12.5v36L20.2,87.9z"/>
	<path class="st0" d="M185.3,151.7c-1.2,2.2-3.5,3.5-6,3.6l-29.5,0.3l-14.7,26c-1.3,2.3-3.7,3.6-6.1,3.6c-1.2,0-2.4-0.3-3.4-0.9
		c-3.4-1.9-4.6-6.2-2.6-9.5l14.6-25.9l-13.1-22.1l-14.5,0.1c0,0,0,0-0.1,0c-3.8,0-7-3.1-7-6.9c0-3.9,3-7,6.9-7.1l14.5-0.1l12.7-22.4
		l-15.1-25.6c-2-3.4-0.8-7.6,2.5-9.6c3.4-2,7.6-0.8,9.6,2.5l15.2,25.7l29.5-0.3c0,0,0,0,0.1,0c2.5,0,4.8,1.3,6,3.4l8.9,15.1V65.9
		c0-5.2-2.8-10-7.2-12.5l-76.1-44c-2.2-1.3-4.7-1.9-7.2-1.9c-2.6,0-5.1,0.7-7.2,1.9L64.3,27.5c0.4,0.4,0.8,0.9,1.1,1.4l15.1,25.5
		l14.8-0.1c0,0,0,0,0.1,0c3.8,0,7,3.1,7,6.9c0,3.9-3,7-6.9,7.1l-14.5,0.1L68.2,91l15,25.4c1.3,2.2,1.3,4.8,0.1,7l-16.6,29.3
		c-1.2,2.2-3.5,3.5-6,3.6L27,156.7c0,0,0,0-0.1,0c-2.5,0-4.8-1.3-6-3.4l-8.5-14.4v15c0,5.2,2.8,10,7.2,12.5l76.1,44
		c2.2,1.3,4.7,1.9,7.2,1.9c2.5,0,5.1-0.7,7.3-1.9l76.1-44c4.5-2.6,7.2-7.4,7.2-12.5v-16.7L185.3,151.7z M111.7,54.2c3.9,0,7,3.1,7,7
		s-3.1,7-7,7c-3.9,0-7-3.1-7-7S107.8,54.2,111.7,54.2z M93.5,126.7c-3.9,0-7-3.1-7-7c0-3.9,3.1-7,7-7s7,3.1,7,7
		C100.5,123.6,97.4,126.7,93.5,126.7z"/>
	<polygon class="st0" points="149.1,97.3 136.5,119.6 149.5,141.6 175.1,141.4 187.7,119.1 174.7,97 	"/>
</g>
</svg>
